PathFileType	4	(X/Y/Z)	C:/Users/opensim2020/Desktop/walking_exp_matlab/subject06_walking17_straight_04.trc																																																																																																																																					
DataRate	CameraRate	NumFrames	NumMarkers	Units	OrigDataRate	OrigDataStartFrame	OrigNumFrames																																																																																																																																	
100	100	6	45	mm	100	4325	318																																																																																																																																	
Frame#	Time	LFHD			RFHD			LBHD			RBHD			C7			T10			CLAV			STRN			RBAK			LSHO			LUPA			LELB			LFRM			LWRA			LWRB			LFIN			RSHO			RUPA			RELB			RFRM			RWRA			RWRB			RFIN			LASI			RASI			LPSI			RPSI			LTHI			LKNE			LTIB			LANK			LHEE			LTOE			RTHI			RKNE			RTIB			RANK			RHEE			RTOE			*39			*40			*41			*42			*43			*44		
		X1	Y1	Z1	X2	Y2	Z2	X3	Y3	Z3	X4	Y4	Z4	X5	Y5	Z5	X6	Y6	Z6	X7	Y7	Z7	X8	Y8	Z8	X9	Y9	Z9	X10	Y10	Z10	X11	Y11	Z11	X12	Y12	Z12	X13	Y13	Z13	X14	Y14	Z14	X15	Y15	Z15	X16	Y16	Z16	X17	Y17	Z17	X18	Y18	Z18	X19	Y19	Z19	X20	Y20	Z20	X21	Y21	Z21	X22	Y22	Z22	X23	Y23	Z23	X24	Y24	Z24	X25	Y25	Z25	X26	Y26	Z26	X27	Y27	Z27	X28	Y28	Z28	X29	Y29	Z29	X30	Y30	Z30	X31	Y31	Z31	X32	Y32	Z32	X33	Y33	Z33	X34	Y34	Z34	X35	Y35	Z35	X36	Y36	Z36	X37	Y37	Z37	X38	Y38	Z38	X39	Y39	Z39	X40	Y40	Z40	X41	Y41	Z41	X42	Y42	Z42	X43	Y43	Z43	X44	Y44	Z44	X45	Y45	Z45
																																																																																																																																								
40	0.39	-1160.07849	1663.90698	-1525.81384	-1161.96057	1648.54016	-1394.71497	-1291.41907	1605.14783	-1530.24451	-1292.10376	1595.56067	-1401.84338	-1289.05908	1447.9884	-1467.44958	-1324.34778	1119.74622	-1448.2616	-1178.4137	1371.73718	-1474.75232	-1140.22449	1195.70496	-1478.48206	-1352.69604	1281.28381	-1373.50989	-1249.29639	1398.22778	-1632.57361	-1287.09741	1198.33228	-1696.07031	-1311.09082	1088.37671	-1702.69568	-1312.62756	937.00525	-1720.86499	-1273.23364	814.40009	-1676.01428	-1333.33801	819.5097	-1714.2533	-1306.05127	730.67096	-1712.39392	-1205.01697	1407.90356	-1310.91174	-1231.21814	1209.64661	-1216.6051	-1219.84082	1087.06091	-1207.0199	-1199.32092	968.09961	-1194.7605	-1142.73975	831.11017	-1239.05505	-1187.5896	831.33881	-1188.3125	-1148.21167	757.0506	-1193.40161	-1142.99939	962.81073	-1561.61768	-1144.80273	962.69269	-1342.82703	-1304.03247	987.80597	-1534.46436	-1296.68176	989.12097	-1365.41748	-1169.66052	651.71637	-1625.94446	-1136.63269	492.49393	-1600.65222	-1124.427	237.7711	-1593.50854	-1093.60437	69.09498	-1552.93945	-1127.16272	52.95052	-1503.33923	-946.62708	48.23295	-1557.90039	-1236.34326	625.7146	-1298.41968	-1253.98792	499.82089	-1319.63916	-1414.60364	281.60913	-1325.19519	-1520.49548	126.69727	-1367.19873	-1569.25696	122.84689	-1409.44849	-1398.8728	37.02024	-1383.08923	-1262.56714	1696.95984	-1467.12305	NaN	NaN	NaN	NaN	NaN	NaN	NaN	NaN	NaN	NaN	NaN	NaN	NaN	NaN	NaN
41	0.4	-1153.44873	1665.33044	-1527.33118	-1155.3606	1650.10278	-1396.24731	-1284.75708	1606.53369	-1531.90173	-1285.43933	1597.01587	-1403.37781	-1282.07678	1449.22632	-1468.97205	-1316.73181	1121.06653	-1449.70386	-1171.27478	1373.31921	-1476.24243	-1132.56934	1197.41785	-1479.88281	-1345.37061	1282.55176	-1374.92725	-1242.07849	1399.72046	-1633.98157	-1278.87244	1199.73621	-1697.8075	-1302.33875	1089.71594	-1704.57727	-1303.26306	938.66705	-1723.29968	-1263.17639	815.93518	-1677.99133	-1323.12134	820.73151	-1716.49231	-1295.44373	732.09918	-1714.61609	-1198.18286	1409.53613	-1312.44128	-1224.48535	1211.40979	-1217.96021	-1213.44556	1088.80176	-1208.3645	-1193.18384	969.78351	-1195.85156	-1136.30176	832.79718	-1239.62878	-1182.22229	833.09833	-1188.86011	-1142.9054	758.38806	-1193.94836	-1135.25293	964.4173	-1563.39783	-1136.94397	964.30341	-1344.69031	-1296.12073	989.27637	-1535.79321	-1288.62451	990.43872	-1366.94519	-1162.89246	653.01093	-1626.31555	-1132.39075	493.05716	-1601.57031	-1122.47913	238.01151	-1593.91064	-1093.38208	69.09586	-1552.86584	-1127.09851	53.05409	-1503.35388	-946.62439	47.77878	-1557.54712	-1227.11658	626.72986	-1299.11877	-1243.67273	500.68622	-1319.74609	-1407.46692	284.96497	-1325.54663	-1515.93738	131.91969	-1367.20728	-1564.20581	129.52286	-1409.81738	-1398.15051	37.17971	-1383.17224	-1255.96167	1698.44177	-1468.83289	NaN	NaN	NaN	NaN	NaN	NaN	NaN	NaN	NaN	NaN	NaN	NaN	NaN	NaN	NaN
42	0.41	-1146.74512	1666.68469	-1528.8634	-1148.78198	1651.61462	-1397.86426	-1277.98669	1607.79065	-1533.4928	-1278.94312	1598.47363	-1405.10449	-1275.15466	1450.34839	-1470.51331	-1309.07422	1122.31482	-1451.37659	-1164.15649	1374.77039	-1477.66626	-1124.92346	1199.05627	-1481.2644	-1338.08716	1283.72571	-1376.40479	-1234.90149	1401.23596	-1635.37024	-1270.61609	1201.1814	-1699.57483	-1293.38391	1091.02832	-1706.59436	-1293.17407	939.67468	-1725.00464	-1252.78845	817.41882	-1680.09509	-1312.60034	821.95074	-1718.8252	-1284.44934	733.47363	-1716.92969	-1191.38745	1411.07996	-1314.02612	-1217.53845	1213.14514	-1219.32056	-1206.84729	1090.5127	-1209.75122	-1186.9928	971.40936	-1196.91211	-1130.88293	833.8067	-1240.17651	-1176.15051	834.49426	-1189.97913	-1137.49146	759.7489	-1194.54382	-1127.47595	965.8595	-1565.07568	-1129.01685	965.83197	-1346.52795	-1288.13098	990.60046	-1537.2511	-1280.70496	991.72638	-1368.63037	-1156.63831	653.88977	-1626.86743	-1128.47388	493.45953	-1602.58594	-1120.66394	238.05563	-1594.22485	-1093.04321	69.03207	-1552.82092	-1127.01123	53.15995	-1503.38867	-946.44061	47.35109	-1557.13086	-1217.64612	627.67816	-1299.43311	-1232.72925	501.44073	-1319.66821	-1399.63989	288.39679	-1325.6311	-1510.72388	137.34074	-1367.3606	-1558.38916	136.39069	-1410.48865	-1397.13623	37.301	-1383.48779	-1249.37292	1699.78992	-1470.50037	NaN	NaN	NaN	NaN	NaN	NaN	NaN	NaN	NaN	NaN	NaN	NaN	NaN	NaN	NaN
43	0.42	-1140.06189	1667.88745	-1530.42944	-1142.28516	1652.9093	-1399.41113	-1271.29895	1608.89575	-1535.09753	-1272.26868	1599.69653	-1406.66455	-1268.20642	1451.33508	-1472.00476	-1301.51428	1123.49438	-1453.17529	-1157.04248	1376.09778	-1479.04187	-1117.26465	1200.51831	-1482.65222	-1330.81726	1284.82397	-1377.98169	-1227.73022	1402.63599	-1636.70398	-1262.30127	1202.56079	-1701.42102	-1284.41797	1092.31995	-1708.64417	-1283.31726	941.24146	-1727.54077	-1242.12634	818.94843	-1682.34143	-1301.83667	823.10382	-1721.25195	-1273.11084	734.83307	-1719.35864	-1184.79163	1412.47375	-1315.73975	-1210.61865	1214.81616	-1220.57581	-1200.31335	1092.07764	-1211.04553	-1180.75452	972.9668	-1197.94287	-1124.84229	835.07355	-1240.80396	-1170.56018	835.89246	-1190.89001	-1132.07483	760.85065	-1195.30957	-1119.65308	967.06158	-1566.6239	-1121.4104	967.25763	-1348.28101	-1280.13013	991.77698	-1538.97192	-1272.96387	992.83594	-1370.52075	-1150.90295	654.49298	-1627.63196	-1124.65674	493.65161	-1603.69275	-1118.56152	238.17329	-1594.71545	-1092.57727	68.98955	-1552.73157	-1126.81738	53.27871	-1503.35596	-946.27356	47.01354	-1556.7439	-1207.79102	628.55078	-1299.63562	-1221.47925	501.97525	-1319.11682	-1391.12415	291.67389	-1326.19958	-1504.78894	142.67609	-1367.99646	-1551.84436	143.37454	-1411.47412	-1396.01721	37.4575	-1383.73633	-1242.77478	1700.99304	-1472.20081	NaN	NaN	NaN	NaN	NaN	NaN	NaN	NaN	NaN	NaN	NaN	NaN	NaN	NaN	NaN
44	0.43	-1133.46326	1668.99609	-1532.02112	-1135.67517	1654.08228	-1400.97205	-1264.60266	1609.81921	-1536.69299	-1265.66101	1600.76367	-1408.26331	-1261.27344	1452.1897	-1473.57129	-1293.89929	1124.41492	-1455.10559	-1149.94312	1377.26001	-1480.41406	-1109.65588	1201.84546	-1484.03027	-1323.56384	1285.76025	-1379.6427	-1220.55334	1403.95251	-1638.06799	-1253.98059	1203.86169	-1703.29712	-1275.31482	1093.47656	-1710.70471	-1273.11743	942.46753	-1729.8269	-1231.18677	820.44214	-1684.73572	-1290.85486	824.22052	-1723.78552	-1261.35974	736.16608	-1721.96497	-1178.03479	1413.70837	-1317.32422	-1203.6499	1216.23413	-1221.87744	-1193.73352	1093.49329	-1212.36438	-1174.4635	974.31641	-1198.93066	-1118.80017	836.20367	-1241.45068	-1164.36914	837.23346	-1191.46497	-1126.25757	761.85016	-1196.15662	-1111.77588	968.07605	-1568.09192	-1113.95288	968.63947	-1349.89465	-1272.0603	992.82922	-1540.81177	-1265.35364	993.76978	-1372.52185	-1145.42578	654.89276	-1628.63513	-1120.79041	493.76123	-1604.95789	-1116.36548	238.30737	-1595.20105	-1092.08948	68.93824	-1552.62085	-1126.57788	53.42915	-1503.32251	-946.33148	46.65227	-1556.47266	-1197.71729	629.38275	-1299.63416	-1209.65942	502.38086	-1318.25513	-1382.31787	294.94321	-1326.4895	-1498.44299	148.15382	-1368.54053	-1544.58716	150.55098	-1412.71375	-1394.77014	37.78255	-1383.9231	-1236.2793	1702.0343	-1473.89795	NaN	NaN	NaN	NaN	NaN	NaN	NaN	NaN	NaN	NaN	NaN	NaN	NaN	NaN	NaN
45	0.44	-1126.88953	1669.8573	-1533.56628	-1129.1449	1655.20667	-1402.50964	-1257.90833	1610.54102	-1538.22961	-1259.05518	1601.61682	-1409.82581	-1254.27783	1452.87561	-1475.10071	-1286.44922	1125.1925	-1457.18298	-1142.81921	1378.20862	-1481.81299	-1102.1217	1202.93567	-1485.35767	-1316.34448	1286.46863	-1381.41504	-1213.34424	1405.11621	-1639.44312	-1245.64209	1205.02112	-1705.20959	-1266.18652	1094.5144	-1712.82031	-1262.60193	943.34155	-1731.92322	-1219.98291	821.79498	-1687.11157	-1279.59045	825.1521	-1726.39856	-1249.29321	737.39038	-1724.63464	-1171.33765	1414.67932	-1318.88428	-1196.85828	1217.46667	-1223.18457	-1187.20813	1094.65564	-1213.63635	-1168.15259	975.51251	-1199.87329	-1112.66467	837.09125	-1242.06799	-1158.19226	838.31689	-1192.21765	-1120.41333	762.66949	-1196.92334	-1103.86938	968.7627	-1569.46619	-1106.69775	969.81097	-1351.39783	-1264.0509	993.71881	-1542.85315	-1257.98706	994.50269	-1374.59863	-1139.56982	655.83014	-1630.06824	-1116.77783	493.79221	-1606.32361	-1114.23962	238.32039	-1595.66931	-1091.52429	68.89627	-1552.5144	-1126.31201	53.56099	-1503.26294	-945.77649	45.99265	-1555.64783	-1187.55737	629.9787	-1299.5575	-1197.86169	502.90198	-1317.32422	-1373.11169	298.26208	-1326.60291	-1491.54224	153.64926	-1369.08887	-1536.80432	157.72002	-1413.98572	-1393.25403	38.33092	-1384.08398	-1229.73083	1702.85681	-1475.51868	NaN	NaN	NaN	NaN	NaN	NaN	NaN	NaN	NaN	NaN	NaN	NaN	NaN	NaN	NaN
